# xmcd CD database file generated by Grip 3.2.0
# 
# Track frame offsets:
#       150
#       20530
#       35170
#       54523
#       74930
#       90915
#       111700
#       131490
#       142268
#       156883
#       177905
#       191983
#       212260
#       235340
#       254800
#       274420
# 
# Disc length: 3850 seconds
# 
# Revision: 2
# Processed by: cddbd v1.5.1PL0 Copyright (c) Steve Scherf et al.
# Submitted via: Grip 3.2.0
# 
DISCID=050f0810
DTITLE=Compilations - Adventures in Music - #30 Rhythm and Blues
DYEAR=1991
DGENRE=Blues
TTITLE0=Mighty Sam McClain - I Just Came To Get My Baby (Out of Jail)
TTITLE1=James Carr - You Gotta Love Your Woman
TTITLE2=Rufus Thomas - Rocket 88
TTITLE3=Booker T. Laury - Early In The Mornin'
TTITLE4=Phoebe Lewis - Nobody's Fool
TTITLE5=Cicero Blake - She's Cheatin' On You
TTITLE6=Ted Taylor - Cummins Prison Farm
TTITLE7=Frankie Lee Sims - What Will Lucy Mae Do
TTITLE8=Lee Dorsey - Everything I Do Gonh Be Funky (From Now On)
TTITLE9=James Carr - Take Me To The Limit
TTITLE10=Johnny Adams - Performance
TTITLE11=L.J. Reynolds - After The Tears
TTITLE12=Johnnie Taylor - Crazy Over You
TTITLE13=The Rance Allen Group - I Appreciate You
TTITLE14=Tom Limbaugh - Little Sin
TTITLE15=Anna Maranda - Am I Good
EXTD=1991
EXTT0=
EXTT1=
EXTT2=
EXTT3=
EXTT4=
EXTT5=
EXTT6=
EXTT7=
EXTT8=
EXTT9=
EXTT10=
EXTT11=
EXTT12=
EXTT13=
EXTT14=
EXTT15=
PLAYORDER=
